<?xml version="1.0" encoding="UTF-8" standalone="no"?>
<!-- Created with Inkscape (http://www.inkscape.org/) -->

<svg
   width="14.6685mm"
   height="8.8132715mm"
   viewBox="0 0 14.6685 8.8132715"
   version="1.1"
   id="svg1"
   inkscape:version="1.4.2 (f4327f4, 2025-05-13)"
   sodipodi:docname="logo musee.svg"
   xmlns:inkscape="http://www.inkscape.org/namespaces/inkscape"
   xmlns:sodipodi="http://sodipodi.sourceforge.net/DTD/sodipodi-0.dtd"
   xmlns="http://www.w3.org/2000/svg"
   xmlns:svg="http://www.w3.org/2000/svg">
  <sodipodi:namedview
     id="namedview1"
     pagecolor="#ffffff"
     bordercolor="#666666"
     borderopacity="1.0"
     inkscape:showpageshadow="2"
     inkscape:pageopacity="0.0"
     inkscape:pagecheckerboard="0"
     inkscape:deskcolor="#d1d1d1"
     inkscape:document-units="px"
     inkscape:zoom="5.9081369"
     inkscape:cx="3.3005329"
     inkscape:cy="34.274764"
     inkscape:window-width="1920"
     inkscape:window-height="1009"
     inkscape:window-x="1272"
     inkscape:window-y="-8"
     inkscape:window-maximized="1"
     inkscape:current-layer="layer1" />
  <defs
     id="defs1" />
  <g
     inkscape:label="Calque 1"
     inkscape:groupmode="layer"
     id="layer1"
     transform="translate(-132.70577,-106.34605)">
    <rect
       class="cls-10"
       x="137.19046"
       y="109.42844"
       width="1.7885834"
       height="1.6245416"
       id="rect106"
       style="fill:#e73b21;stroke-width:0.264583" />
    <rect
       class="cls-10"
       x="139.14043"
       y="109.42844"
       width="1.7885834"
       height="1.6245416"
       id="rect107"
       style="fill:#e73b21;stroke-width:0.264583" />
    <rect
       class="cls-10"
       x="141.09041"
       y="109.42844"
       width="1.7885834"
       height="1.6245416"
       id="rect108"
       style="fill:#e73b21;stroke-width:0.264583" />
    <rect
       class="cls-10"
       x="143.03246"
       y="109.42844"
       width="1.7885834"
       height="1.6245416"
       id="rect109"
       style="fill:#e73b21;stroke-width:0.264583" />
    <rect
       class="cls-10"
       x="144.98244"
       y="109.42844"
       width="1.7885834"
       height="1.6245416"
       id="rect110"
       style="fill:#e73b21;stroke-width:0.264583" />
    <rect
       class="cls-11"
       x="143.03246"
       y="106.36986"
       width="1.7885834"
       height="1.6245416"
       id="rect111"
       style="fill:#e72a69;stroke-width:0.264583" />
    <rect
       class="cls-11"
       x="144.98244"
       y="107.67161"
       width="1.7885834"
       height="1.6245416"
       id="rect112"
       style="fill:#e72a69;stroke-width:0.264583" />
    <rect
       class="cls-12"
       x="143.03246"
       y="112.97121"
       width="1.7885834"
       height="1.6245416"
       id="rect113"
       style="fill:#03aad3;stroke-width:0.264583" />
    <rect
       class="cls-12"
       x="144.98244"
       y="112.97121"
       width="1.7885834"
       height="1.6245416"
       id="rect114"
       style="fill:#03aad3;stroke-width:0.264583" />
    <rect
       class="cls-13"
       x="143.03246"
       y="111.21173"
       width="1.7885834"
       height="1.6245416"
       id="rect115"
       style="fill:#f39121;stroke-width:0.264583" />
    <rect
       class="cls-13"
       x="144.98244"
       y="111.21173"
       width="1.7885834"
       height="1.6245416"
       id="rect116"
       style="fill:#f39121;stroke-width:0.264583" />
    <rect
       class="cls-13"
       x="141.09041"
       y="111.21173"
       width="1.7885834"
       height="1.6245416"
       id="rect117"
       style="fill:#f39121;stroke-width:0.264583" />
    <path
       class="cls-2"
       d="m 145.24967,107.52608 h -0.26459 v -0.26458 h 0.26459 v 0.0265 h 0.0265 v 0.082 h -0.0265 v 0.0529 h 0.0265 v 0.0794 h -0.0265 z m -0.0794,-0.21431 h -0.082 v 0.0582 h 0.082 z m 0,0.10848 h -0.082 v 0.0529 h 0.082 z"
       id="path117"
       style="fill:#ffffff;stroke-width:0.264583" />
    <path
       class="cls-2"
       d="m 145.62537,107.25885 v 0.11113 h -0.0264 v 0.0265 h -0.0265 v 0.0265 h -0.0556 v 0.10583 h -0.10584 v -0.10583 h -0.0529 v -0.0265 h -0.0265 v -0.0265 h -0.0291 v -0.10848 h 0.10848 v 0.0794 h 0.0265 v 0.0291 h 0.0529 v -0.0291 h 0.0265 v -0.0794 z"
       id="path118"
       style="fill:#ffffff;stroke-width:0.264583" />
    <path
       class="cls-2"
       d="m 145.97462,107.44671 h -0.0265 v -0.0265 h -0.037 v -0.0265 h -0.0291 v 0.13229 h -0.10583 v -0.26458 h 0.10583 v 0.0265 h 0.0291 v 0.0265 h 0.0265 v 0.0265 h 0.0265 v -0.0265 h 0.0265 v -0.0265 h 0.0265 v -0.0265 h 0.10848 v 0.26458 h -0.10848 v -0.13229 h -0.0265 v 0.0265 h -0.0265 z"
       id="path119"
       style="fill:#ffffff;stroke-width:0.264583" />
    <path
       class="cls-2"
       d="m 146.44029,107.49963 v 0.0264 h -0.24077 v -0.0264 h -0.0238 v -0.21432 h 0.0265 v -0.0265 h 0.23812 v 0.0265 h 0.0265 v 0.21432 z m -0.16139,-0.0265 h 0.082 v -0.1614 h -0.082 z"
       id="path120"
       style="fill:#ffffff;stroke-width:0.264583" />
    <path
       class="cls-2"
       d="m 146.51173,107.42025 v -0.0265 h -0.0291 v -0.13494 h 0.29634 v 0.0529 h -0.18786 v 0.0582 h 0.1614 v 0.0265 h 0.0265 v 0.10583 h -0.0265 v 0.0265 h -0.26458 v -0.0529 h 0.18785 v -0.0529 z"
       id="path121"
       style="fill:#ffffff;stroke-width:0.264583" />
    <rect
       class="cls-8"
       x="132.77191"
       y="106.41219"
       width="14.536208"
       height="8.6809797"
       rx="0.76464587"
       id="rect121"
       style="fill:none;stroke:#ffffff;stroke-width:0.132292px;stroke-miterlimit:10" />
    <path
       class="cls-2"
       d="m 134.26946,108.80667 h -0.16404 v -0.1614 h -0.1614 v 0.64823 h -0.65087 v -1.62454 h 0.48947 v 0.16404 h 0.1614 v 0.1614 h 0.1614 v 0.16933 h 0.16404 v -0.1614 h 0.16139 v -0.16139 h 0.12965 v -0.16404 h 0.52917 v 1.62454 h -0.65088 v -0.64823 h -0.16933 z"
       id="path122"
       style="fill:#ffffff;stroke-width:0.264583" />
    <path
       class="cls-2"
       d="m 136.38612,108.97071 v -1.30175 h 0.65088 v 1.46314 h -0.1614 v 0.1614 h -1.46314 v -0.1614 h -0.16404 v -1.46314 h 0.65087 v 1.30175 z"
       id="path123"
       style="fill:#ffffff;stroke-width:0.264583" />
    <path
       class="cls-2"
       d="m 137.35185,108.64527 v -0.16404 h -0.17198 V 107.833 h 0.1614 v -0.16404 h 1.62454 v 0.32544 h -1.13771 v 0.32543 h 0.97632 v 0.1614 h 0.16139 v 0.65087 h -0.16139 v 0.1614 h -1.62455 v -0.32279 h 1.13771 v -0.32544 z"
       id="path124"
       style="fill:#ffffff;stroke-width:0.264583" />
    <path
       class="cls-2"
       d="m 140.27815,108.64527 h -0.48948 v 0.32544 h 1.14035 v 0.32279 h -1.63248 v -0.1614 h -0.16139 v -1.2991 h 0.16139 v -0.16404 h 1.62719 v 0.32544 h -1.14036 v 0.32543 h 0.48948 z m -0.48948,-1.46314 h 0.16404 v -0.16405 h 0.16139 v -0.16139 h 0.32544 v 0.32544 h -0.16139 v 0.16139 h -0.16405 v 0.16404 h -0.32543 z"
       id="path125"
       style="fill:#ffffff;stroke-width:0.264583" />
    <path
       class="cls-2"
       d="m 142.22812,108.31983 v 0.32544 h -0.48683 v 0.32544 h 1.13771 v 0.32279 h -1.62719 v -0.1614 h -0.16139 v -1.2991 h 0.16139 v -0.16404 h 1.62719 v 0.32544 h -1.13771 v 0.32543 z"
       id="path126"
       style="fill:#ffffff;stroke-width:0.264583" />
    <path
       class="cls-2"
       d="m 133.28785,111.05298 v -1.62719 h 1.46315 v 0.16404 h 0.1614 v 0.1614 h 0.16404 v 0.97631 h -0.16404 v 0.1614 h -0.1614 v 0.16404 z m 0.98161,-1.30175 h -0.32544 v 0.97631 h 0.32544 v -0.16139 h 0.16139 v -0.65088 h -0.16139 z"
       id="path127"
       style="fill:#ffffff;stroke-width:0.264583" />
    <path
       class="cls-2"
       d="m 136.38612,110.72754 v -1.30175 h 0.65088 v 1.46315 h -0.1614 v 0.16404 h -1.46314 v -0.16404 h -0.16404 v -1.46315 h 0.65087 v 1.30175 z"
       id="path128"
       style="fill:#ffffff;stroke-width:0.264583" />
    <path
       class="cls-2"
       d="m 133.93873,112.51083 h 0.48683 v -1.30175 h 0.65088 v 1.45257 h -0.16404 v 0.16404 h -1.46315 v -0.16404 h -0.1614 v -0.47625 h 0.65088 z"
       id="path129"
       style="fill:#ffffff;stroke-width:0.264583" />
    <path
       class="cls-2"
       d="m 136.38612,111.8679 v 0.32543 h -0.48683 v 0.32544 h 1.13771 v 0.32544 h -1.62454 v -0.18256 h -0.16404 v -1.29911 h 0.16404 v -0.16404 h 1.62454 v 0.32544 h -1.13771 v 0.34396 z"
       id="path130"
       style="fill:#ffffff;stroke-width:0.264583" />
    <path
       class="cls-2"
       d="m 138.32817,112.51083 v -1.30175 h 0.64823 v 1.45257 h -0.1614 v 0.16404 h -1.46315 v -0.16404 h -0.17198 v -1.46315 h 0.65088 v 1.30175 z"
       id="path131"
       style="fill:#ffffff;stroke-width:0.264583" />
    <path
       class="cls-2"
       d="m 135.07644,112.97121 v 0.97367 h -0.16404 v 0.16404 h -0.1614 v 0.16139 h -0.1614 v 0.16404 h -0.16404 v 0.1614 h -1.13771 v -1.62454 h 0.65088 v 1.13771 h 0.16139 v -0.16404 h 0.16934 v -0.1614 h 0.16139 v -0.81227 z"
       id="path132"
       style="fill:#ffffff;stroke-width:0.264583" />
    <path
       class="cls-2"
       d="m 137.02642,112.97121 v 0.32544 h -0.56886 v 0.97366 h 0.56886 v 0.32544 h -1.78859 v -0.32544 h 0.56886 v -0.97366 h -0.56886 v -0.32544 z"
       id="path133"
       style="fill:#ffffff;stroke-width:0.264583" />
    <path
       class="cls-2"
       d="m 137.17987,114.59575 v -1.62454 h 1.46315 v 0.16139 h 0.16404 v 0.16405 h 0.1614 v 0.97366 h -0.1614 v 0.16404 h -0.16404 v 0.1614 z m 0.97632,-1.2991 h -0.32544 v 0.97366 h 0.32544 v -0.16139 h 0.16404 v -0.65352 h -0.16404 z"
       id="path134"
       style="fill:#ffffff;stroke-width:0.264583" />
    <path
       class="cls-2"
       d="m 142.71496,114.43435 v 0.1614 h -1.46315 v -0.1614 h -0.16139 v -1.30175 h 0.16139 v -0.16139 h 1.46315 v 0.16139 h 0.16404 v 1.30175 z m -0.97367,-0.16404 h 0.48683 v -0.97366 h -0.48683 z"
       id="path135"
       style="fill:#ffffff;stroke-width:0.264583" />
    <polygon
       class="cls-2"
       points="139.77,255.37 139.77,254.14 144.07,254.14 144.07,252.91 137.93,252.91 137.93,253.53 137.31,253.53 137.31,258.44 137.93,258.44 137.93,259.06 144.07,259.06 144.07,257.83 139.77,257.83 139.77,256.6 141.61,256.6 141.61,255.37 "
       id="polygon135"
       style="fill:#ffffff"
       transform="matrix(0.26458333,0,0,0.26458333,102.8105,46.05544)" />
    <polygon
       class="cls-13"
       points="141.61,251.78 141,251.78 141,252.4 144.07,252.4 144.07,246.26 137.31,246.26 137.31,252.4 139.77,252.4 139.77,251.17 140.38,251.17 140.38,250.56 141,250.56 141,249.94 142.23,249.94 142.23,251.17 141.61,251.17 "
       id="polygon136"
       style="fill:#f39121"
       transform="matrix(0.26458333,0,0,0.26458333,102.8105,46.05544)" />
  </g>
</svg>
